<svg version="1.1" viewBox="0.0 0.0 456.87664041994753 456.87664041994753" fill="none" stroke="none" stroke-linecap="square" stroke-miterlimit="10" xmlns:xlink="http://www.w3.org/1999/xlink" xmlns="http://www.w3.org/2000/svg"><clipPath id="p.0"><path d="m0 0l456.87665 0l0 456.87665l-456.87665 0l0 -456.87665z" clip-rule="nonzero"/></clipPath><g clip-path="url(#p.0)"><path fill="#000000" fill-opacity="0.0" d="m0 0l456.87665 0l0 456.87665l-456.87665 0z" fill-rule="evenodd"/><path fill="#00205b" d="m15.178477 218.27821l0 0c0 -117.78016 95.47969 -213.25984 213.25984 -213.25984l0 0c56.560028 0 110.8035 22.468384 150.79749 62.462364c39.993958 39.99398 62.46234 94.23745 62.46234 150.79749l0 0c0 117.78017 -95.479675 213.25984 -213.25983 213.25984l0 0c-117.78016 0 -213.25984 -95.479675 -213.25984 -213.25984z" fill-rule="evenodd"/><path fill="#ffffff" d="m50.645668 218.27821l0 0c0 -98.52412 79.869576 -178.3937 178.3937 -178.3937l0 0c47.312958 0 92.68808 18.794998 126.1434 52.250305c33.45529 33.455307 52.250305 78.83045 52.250305 126.143394l0 0c0 98.524124 -79.8696 178.39369 -178.3937 178.39369l0 0c-98.524124 0 -178.3937 -79.86957 -178.3937 -178.39369z" fill-rule="evenodd"/><path fill="#00205b" d="m97.937836 195.8024l108.62572 0l0 -108.62572l44.951645 0l0 108.62572l108.6257 0l0 44.951645l-108.6257 0l0 108.62572l-44.951645 0l0 -108.62572l-108.62572 0z" fill-rule="evenodd"/><path stroke="#000000" stroke-width="1.0" stroke-linejoin="round" stroke-linecap="butt" d="m97.937836 195.8024l108.62572 0l0 -108.62572l44.951645 0l0 108.62572l108.6257 0l0 44.951645l-108.6257 0l0 108.62572l-44.951645 0l0 -108.62572l-108.62572 0z" fill-rule="evenodd"/></g></svg>