<svg version="1.1" viewBox="0.0 0.0 344.11811023622045 439.41207349081367" fill="none" stroke="none" stroke-linecap="square" stroke-miterlimit="10" xmlns:xlink="http://www.w3.org/1999/xlink" xmlns="http://www.w3.org/2000/svg"><clipPath id="p.0"><path d="m0 0l344.1181 0l0 439.41208l-344.1181 0l0 -439.41208z" clip-rule="nonzero"/></clipPath><g clip-path="url(#p.0)"><path fill="#000000" fill-opacity="0.0" d="m0 0l344.1181 0l0 439.41208l-344.1181 0z" fill-rule="evenodd"/><path fill="#ffffff" d="m102.41207 219.70604l132.34647 0l0 0c20.88736 0 40.919235 8.29747 55.688828 23.067062c14.769592 14.769592 23.067078 34.801483 23.067078 55.688843l0 78.75589c0 0.0013427734 -0.0010681152 0.0024414062 -0.0024108887 0.0024414062l-289.85587 -0.0024414062l0 0c-0.0013332367 0 -0.0024147034 -0.0010681152 -0.0024147034 -0.0024108887l0.0024147034 -78.75348l0 0c0 -43.49568 35.260223 -78.755905 78.755905 -78.755905z" fill-rule="evenodd"/><path stroke="#000000" stroke-width="12.0" stroke-linejoin="round" stroke-linecap="butt" d="m102.41207 219.70604l132.34647 0l0 0c20.88736 0 40.919235 8.29747 55.688828 23.067062c14.769592 14.769592 23.067078 34.801483 23.067078 55.688843l0 78.75589c0 0.0013427734 -0.0010681152 0.0024414062 -0.0024108887 0.0024414062l-289.85587 -0.0024414062l0 0c-0.0013332367 0 -0.0024147034 -0.0010681152 -0.0024147034 -0.0024108887l0.0024147034 -78.75348l0 0c0 -43.49568 35.260223 -78.755905 78.755905 -78.755905z" fill-rule="evenodd"/><path fill="#ffffff" d="m76.42782 112.96588l0 0c0 -50.888477 41.260315 -92.14174 92.15748 -92.14174l0 0c24.441696 0 47.88231 9.707762 65.16519 26.98769c17.282867 17.279922 26.99228 40.716537 26.99228 65.154045l0 0c0 50.888474 -41.2603 92.14172 -92.15747 92.14172l0 0c-50.897163 0 -92.15748 -41.25325 -92.15748 -92.14172z" fill-rule="evenodd"/><path stroke="#000000" stroke-width="12.0" stroke-linejoin="round" stroke-linecap="butt" d="m76.42782 112.96588l0 0c0 -50.888477 41.260315 -92.14174 92.15748 -92.14174l0 0c24.441696 0 47.88231 9.707762 65.16519 26.98769c17.282867 17.279922 26.99228 40.716537 26.99228 65.154045l0 0c0 50.888474 -41.2603 92.14172 -92.15747 92.14172l0 0c-50.897163 0 -92.15748 -41.25325 -92.15748 -92.14172z" fill-rule="evenodd"/></g></svg>