<svg version="1.1" viewBox="0.0 0.0 343.254593175853 273.8871391076116" fill="none" stroke="none" stroke-linecap="square" stroke-miterlimit="10" xmlns:xlink="http://www.w3.org/1999/xlink" xmlns="http://www.w3.org/2000/svg"><clipPath id="p.0"><path d="m0 0l343.2546 0l0 273.88715l-343.2546 0l0 -273.88715z" clip-rule="nonzero"/></clipPath><g clip-path="url(#p.0)"><path fill="#000000" fill-opacity="0.0" d="m0 0l343.2546 0l0 273.88715l-343.2546 0z" fill-rule="evenodd"/><path fill="#000000" fill-opacity="0.0" d="m16.742783 52.512527l0 0c0 -19.815968 16.064014 -35.879982 35.879982 -35.879982l221.2479 0c9.515961 0 18.642181 3.7802029 25.370972 10.509005c6.728821 6.7288 10.509033 15.855017 10.509033 25.370977l0 143.51562c0 19.815964 -16.064026 35.87999 -35.880005 35.87999l-221.2479 0c-19.815968 0 -35.879982 -16.064026 -35.879982 -35.87999z" fill-rule="evenodd"/><path stroke="#000000" stroke-width="8.0" stroke-linejoin="round" stroke-linecap="butt" d="m16.742783 52.512527l0 0c0 -19.815968 16.064014 -35.879982 35.879982 -35.879982l221.2479 0c9.515961 0 18.642181 3.7802029 25.370972 10.509005c6.728821 6.7288 10.509033 15.855017 10.509033 25.370977l0 143.51562c0 19.815964 -16.064026 35.87999 -35.880005 35.87999l-221.2479 0c-19.815968 0 -35.879982 -16.064026 -35.879982 -35.87999z" fill-rule="evenodd"/><path fill="#000000" fill-opacity="0.0" d="m16.742783 41.860893l293.00787 0l0 164.81891l-293.00787 0z" fill-rule="evenodd"/><path fill="#000000" d="m67.13056 168.34213l0 -9.71875q4.4375 0 7.1875 -0.59375q2.765625 -0.609375 4.265625 -2.171875q1.5 -1.5625 2.09375 -4.5q0.609375 -2.9375 0.609375 -7.5l0 -74.99999l13.4375 0l0 75.24999q0 8.390625 -1.796875 13.734375q-1.796875 5.34375 -6.359375 7.921875q-4.5625 2.578125 -12.96875 2.578125l-6.46875 0zm67.68246 -1.203125q-9.843742 0 -15.734367 -3.828125q-5.875 -3.84375 -8.390625 -10.984375q-2.515625 -7.140625 -2.515625 -16.75l0 -36.828117q0 -9.609375 2.578125 -16.5q2.578125 -6.90625 8.390625 -10.5625q5.828125 -3.671875 15.671867 -3.671875q9.828125 0 15.593765 3.734375q5.765625 3.71875 8.34375 10.5625q2.578125 6.828125 2.578125 16.4375l0 36.953117q0 9.484375 -2.578125 16.5625q-2.578125 7.078125 -8.34375 10.984375q-5.7656403 3.890625 -15.593765 3.890625zm0 -10.671875q5.390625 0 8.140625 -2.21875q2.7656403 -2.234375 3.7187653 -6.25q0.96875 -4.015625 0.96875 -9.421875l0 -42.593742q0 -5.40625 -0.96875 -9.296875q-0.953125 -3.90625 -3.7187653 -6.0q-2.75 -2.109375 -8.140625 -2.109375q-5.40625 0 -8.234367 2.109375q-2.8125 2.09375 -3.78125 6.0q-0.953125 3.890625 -0.953125 9.296875l0 42.593742q0 5.40625 0.953125 9.421875q0.96875 4.015625 3.78125 6.25q2.8281174 2.21875 8.234367 2.21875zm40.554947 9.59375l0 -97.20312l13.3125 0l0 97.20312l-13.3125 0zm29.04123 0l0 -97.20312l9.234375 0l27.609375 64.56249l0 -64.56249l11.28125 0l0 97.20312l-8.640625 0l-27.96875 -66.35937l0 66.35937l-11.515625 0z" fill-rule="nonzero"/></g></svg>