<svg version="1.1" viewBox="0.0 0.0 343.254593175853 273.8871391076116" fill="none" stroke="none" stroke-linecap="square" stroke-miterlimit="10" xmlns:xlink="http://www.w3.org/1999/xlink" xmlns="http://www.w3.org/2000/svg"><clipPath id="p.0"><path d="m0 0l343.2546 0l0 273.88715l-343.2546 0l0 -273.88715z" clip-rule="nonzero"/></clipPath><g clip-path="url(#p.0)"><path fill="#000000" fill-opacity="0.0" d="m0 0l343.2546 0l0 273.88715l-343.2546 0z" fill-rule="evenodd"/><path fill="#cccccc" d="m25.12336 65.18576l0 0c0 -19.815971 16.064014 -35.879986 35.879982 -35.879986l221.24791 0c9.515961 0 18.642181 3.780201 25.370972 10.509003c6.728821 6.7288017 10.509003 15.855015 10.509003 25.370983l0 143.51562c0 19.815964 -16.063995 35.879974 -35.879974 35.879974l-221.24791 0c-19.815968 0 -35.879982 -16.06401 -35.879982 -35.879974z" fill-rule="evenodd"/><path stroke="#000000" stroke-width="8.0" stroke-linejoin="round" stroke-linecap="butt" d="m25.12336 65.18576l0 0c0 -19.815971 16.064014 -35.879986 35.879982 -35.879986l221.24791 0c9.515961 0 18.642181 3.780201 25.370972 10.509003c6.728821 6.7288017 10.509003 15.855015 10.509003 25.370983l0 143.51562c0 19.815964 -16.063995 35.879974 -35.879974 35.879974l-221.24791 0c-19.815968 0 -35.879982 -16.06401 -35.879982 -35.879974z" fill-rule="evenodd"/><path fill="#000000" fill-opacity="0.0" d="m25.12336 54.534122l293.00787 0l0 164.8189l-293.00787 0z" fill-rule="evenodd"/><path fill="#000000" d="m48.38993 178.73412l0 -97.203125l13.5625 0l0 87.484375l24.828125 0l0 9.71875l-38.390625 0zm47.639954 0l0 -97.203125l37.671867 0l0 10.078125l-24.109367 0l0 32.171875l19.562492 0l0 9.59375l-19.562492 0l0 35.640625l24.359367 0l0 9.71875l-37.921867 0zm43.558693 0l20.640625 -97.203125l13.078125 0l20.765625 97.203125l-12.84375 0l-4.4375 -24.484375l-19.796875 0l-4.6875 24.484375l-12.71875 0zm19.203125 -34.203125l16.203125 0l-8.171875 -43.796875l-8.03125 43.796875zm58.679947 34.203125l-21.71875 -97.203125l12.71875 0l15.359375 71.640625l14.640625 -71.640625l12.359375 0l-21.484375 97.203125l-11.875 0zm43.67807 0l0 -97.203125l37.671875 0l0 10.078125l-24.109375 0l0 32.171875l19.5625 0l0 9.59375l-19.5625 0l0 35.640625l24.359375 0l0 9.71875l-37.921875 0z" fill-rule="nonzero"/></g></svg>