<svg version="1.1" viewBox="0.0 0.0 344.11811023622045 439.41207349081367" fill="none" stroke="none" stroke-linecap="square" stroke-miterlimit="10" xmlns:xlink="http://www.w3.org/1999/xlink" xmlns="http://www.w3.org/2000/svg"><clipPath id="p.0"><path d="m0 0l344.1181 0l0 439.41208l-344.1181 0l0 -439.41208z" clip-rule="nonzero"/></clipPath><g clip-path="url(#p.0)"><path fill="#000000" fill-opacity="0.0" d="m0 0l344.1181 0l0 439.41208l-344.1181 0z" fill-rule="evenodd"/><path fill="#000000" fill-opacity="0.0" d="m80.754456 211.02371l0 0c-38.57296 -33.197968 -42.930252 -91.3798 -9.732285 -129.95276l0 0c15.942223 -18.523388 38.58989 -29.955082 62.960754 -31.78024c24.370865 -1.8251572 48.468613 6.105728 66.992004 22.047955l0 0c38.572952 33.197968 42.930252 91.37979 9.732285 129.95276l0 0c-33.197968 38.572952 -91.3798 42.930252 -129.95276 9.732285z" fill-rule="evenodd"/><path stroke="#050401" stroke-width="12.0" stroke-linejoin="round" stroke-linecap="butt" d="m80.754456 211.02371l0 0c-38.57296 -33.197968 -42.930252 -91.3798 -9.732285 -129.95276l0 0c15.942223 -18.523388 38.58989 -29.955082 62.960754 -31.78024c24.370865 -1.8251572 48.468613 6.105728 66.992004 22.047955l0 0c38.572952 33.197968 42.930252 91.37979 9.732285 129.95276l0 0c-33.197968 38.572952 -91.3798 42.930252 -129.95276 9.732285z" fill-rule="evenodd"/><path fill="#050401" d="m311.3917 287.9339l0 0l0 0c-2.3389282 2.7148132 -5.6608887 4.38974 -9.235107 4.656372c-3.5742493 0.26660156 -7.1079407 -0.89697266 -9.82373 -3.2347412l-90.45299 -77.86258c-9.1552734E-5 -7.6293945E-5 -1.0681152E-4 -2.2888184E-4 -3.0517578E-5 -3.2043457E-4l17.637833 -20.472122l0 0c7.6293945E-5 -9.1552734E-5 2.1362305E-4 -1.0681152E-4 3.0517578E-4 -3.0517578E-5l90.45267 77.86261l0 0c5.655365 4.868164 6.291565 13.397491 1.421051 19.050812z" fill-rule="evenodd"/><path stroke="#000000" stroke-width="1.0" stroke-linejoin="round" stroke-linecap="butt" d="m311.3917 287.9339l0 0l0 0c-2.3389282 2.7148132 -5.6608887 4.38974 -9.235107 4.656372c-3.5742493 0.26660156 -7.1079407 -0.89697266 -9.82373 -3.2347412l-90.45299 -77.86258c-9.1552734E-5 -7.6293945E-5 -1.0681152E-4 -2.2888184E-4 -3.0517578E-5 -3.2043457E-4l17.637833 -20.472122l0 0c7.6293945E-5 -9.1552734E-5 2.1362305E-4 -1.0681152E-4 3.0517578E-4 -3.0517578E-5l90.45267 77.86261l0 0c5.655365 4.868164 6.291565 13.397491 1.421051 19.050812z" fill-rule="evenodd"/></g></svg>